<?xml version="1.0" encoding="utf-8"?>
<!-- Generator: Adobe Illustrator 27.9.0, SVG Export Plug-In . SVG Version: 6.00 Build 0)  -->
<svg version="1.1" id="Layer_1" xmlns="http://www.w3.org/2000/svg" xmlns:xlink="http://www.w3.org/1999/xlink" x="0px" y="0px"
	 viewBox="0 0 549 258.8" style="enable-background:new 0 0 549 258.8;" xml:space="preserve">
<style type="text/css">
	.st0{fill:#F1F1F1;}
	.st1{fill:none;}
	.st2{enable-background:new    ;}
	.st3{fill:#F16123;}
</style>
<g>
	<g>
		<path class="st0" d="M84.8,57.4l25.8,0.1c14.9,0,22.4,8.1,22.4,24.4v65c0,16.2-7.5,24.3-22.4,24.3c-0.2,0-0.5,0-1,0.1H84.8V57.4z
			 M86.6,169.4h23c0.5,0,0.8-0.1,1.1-0.1c13.8,0,20.7-7.5,20.7-22.6v-65c0-15.1-6.9-22.7-20.7-22.7l-24.1-0.1V169.4z M109,73.3
			c5.3,0,7.9,2.8,7.9,8.5v65c0,5.6-2.6,8.5-7.9,8.5H101V73.3H109z M102.7,75v78.5h6.2c4.1,0,6.2-2.2,6.2-6.7v-65
			c0-4.5-2.1-6.8-6.2-6.8H102.7z"/>
		<path class="st0" d="M147,57.4h17.9v113.8H147V57.4z M148.7,169.4h14.5V59.1h-14.5V169.4z"/>
		<path class="st0" d="M227,148.5c0,16.3-8,24.4-24.1,24.5c-16,0-24.1-8.2-24.1-24.5V80c0-16.3,8-24.4,24.1-24.4
			C219,55.6,227,63.7,227,80v15.9h-17.9V80c0-4.5-2.1-6.7-6.2-6.7h-0.1c-4.1,0-6.1,2.2-6.1,6.7v68.6c0,4.5,2.1,6.7,6.2,6.7
			c4.2,0,6.2-2.2,6.2-6.7v-25.4H201v-17.7H227V148.5z M225.3,107.1h-22.6v14.3h8.2v27.1c0,5.6-2.6,8.5-7.9,8.5
			c-5.3,0-7.9-2.8-7.9-8.5V80c0-5.6,2.6-8.5,7.8-8.5h0.1c5.3,0,7.9,2.9,7.9,8.5v14.2h14.5V80c0-15.1-7.5-22.7-22.4-22.7
			c-14.9,0-22.3,7.6-22.3,22.7v68.6c0,15.2,7.4,22.7,22.3,22.7c14.9,0,22.4-7.6,22.4-22.7V107.1z"/>
		<path class="st0" d="M241,57.4h17.9v113.8H241V57.4z M242.8,169.4h14.5V59.1h-14.5V169.4z"/>
		<path class="st0" d="M317.6,57.4V75h-15.1v96.1h-17.9V75h-15.1V57.4H317.6z M271.2,59.1v14.2h15.1v96.1h14.5V73.3h15.1V59.1H271.2
			z"/>
		<path class="st0" d="M371.7,130.4l5.4,40.7h-18.1l-3.1-23.8h-15l-3.2,23.8h-18l5.4-40.6l11.5-73.2h23.7L371.7,130.4z M358.8,59.1
			h-20.7l-11.3,71.8l-5.1,38.6h14.6l3.2-23.8h18l3.1,23.8h14.6l-5.1-38.8L358.8,59.1z M341.2,131.4l7.1-54l7.1,54H341.2z
			 M353.6,129.7l-5.2-39.2l-5.2,39.2H353.6z"/>
		<path class="st0" d="M386.8,171.2V57.4h17.9v96.1h25.8v17.7H386.8z M428.8,169.4v-14.2H403V59.1h-14.5v110.4H428.8z"/>
	</g>
</g>
<rect y="8.1" class="st1" width="352.9" height="75.1"/>
<g class="st2">
	<path class="st0" d="M29,11.9c-2.1-1.4-4.5-2.2-7.4-2.2c-2.4,0-4.5,0.5-6.2,1.4c-1.7,0.9-3.2,2.1-4.3,3.7c-1.1,1.5-1.9,3.3-2.5,5.3
		c-0.5,2-0.8,4-0.8,6.2c0,2.3,0.3,4.5,0.8,6.6c0.5,2.1,1.4,3.9,2.5,5.4c1.1,1.5,2.6,2.8,4.3,3.7c1.7,0.9,3.8,1.4,6.3,1.4
		c1.8,0,3.4-0.3,4.8-0.9c1.4-0.6,2.6-1.4,3.6-2.5c1-1,1.8-2.3,2.4-3.7c0.6-1.4,0.9-3,1-4.7h5.4c-0.5,5.1-2.3,9.1-5.3,12
		c-3,2.9-7.1,4.3-12.3,4.3c-3.2,0-5.9-0.5-8.3-1.6c-2.4-1.1-4.3-2.6-5.9-4.5c-1.6-1.9-2.7-4.1-3.5-6.7c-0.8-2.6-1.2-5.4-1.2-8.3
		s0.4-5.7,1.3-8.4c0.8-2.6,2.1-4.9,3.7-6.8C9,9.5,11,8,13.4,6.9c2.4-1.1,5.2-1.7,8.3-1.7c2.1,0,4.1,0.3,6,0.9
		c1.9,0.6,3.6,1.4,5.1,2.5c1.5,1.1,2.7,2.5,3.7,4.1c1,1.7,1.6,3.6,1.9,5.7h-5.4C32.5,15.5,31.1,13.4,29,11.9z"/>
	<path class="st0" d="M64.8,6.2c3.9,0,6.9,1,9.1,2.9c2.2,1.9,3.3,4.5,3.3,7.8c0,2.5-0.6,4.6-1.7,6.5c-1.1,1.9-2.9,3.1-5.4,3.8v0.1
		c1.2,0.2,2.1,0.6,2.9,1.1c0.7,0.5,1.3,1.2,1.8,1.9c0.4,0.7,0.8,1.6,1,2.5c0.2,0.9,0.4,1.9,0.5,2.9c0.1,1,0.1,2,0.2,3
		c0,1,0.1,2,0.3,3c0.2,1,0.4,1.9,0.7,2.8c0.3,0.9,0.7,1.7,1.3,2.4h-6c-0.4-0.4-0.6-1-0.8-1.7c-0.1-0.7-0.2-1.5-0.3-2.4
		c0-0.9-0.1-1.9-0.1-2.9c0-1-0.2-2-0.3-3c-0.2-1-0.3-1.9-0.6-2.8c-0.2-0.9-0.6-1.7-1.1-2.3c-0.5-0.7-1.1-1.2-1.9-1.6
		c-0.8-0.4-1.9-0.6-3.2-0.6H51v17.4h-5.4V6.2H64.8z M65.9,24.6c1.1-0.2,2.1-0.6,3-1.1c0.9-0.5,1.5-1.3,2.1-2.2
		c0.5-0.9,0.8-2.1,0.8-3.6c0-2.1-0.6-3.7-1.7-5c-1.1-1.3-3-1.9-5.5-1.9H51v14.2h11.3C63.6,24.9,64.8,24.8,65.9,24.6z"/>
	<path class="st0" d="M112.7,6.2v4.6H90.1v12.9h21.1v4.6H90.1v14.1h22.9v4.6H84.6V6.2H112.7z"/>
	<path class="st0" d="M136.5,6.2l15.9,40.7h-6L142,34.6h-17.2l-4.6,12.3h-5.5l15.8-40.7H136.5z M140.3,30l-6.8-19h-0.1l-6.9,19
		H140.3z"/>
	<path class="st0" d="M146.8,10.7V6.2h32.5v4.6h-13.6v36.1h-5.4V10.7H146.8z"/>
	<path class="st0" d="M189.5,6.2v40.7h-5.4V6.2H189.5z"/>
	<path class="st0" d="M208.5,46.8L194.2,6.2h5.8l11.6,35.3h0.1l11.7-35.3h5.6l-14.5,40.7H208.5z"/>
	<path class="st0" d="M261.6,6.2v4.6h-22.7v12.9H260v4.6h-21.1v14.1h22.9v4.6h-28.3V6.2H261.6z"/>
</g>
<g id="Layer_2_00000027586266886934726710000017669041473318109571_">
</g>
<g>
	<path class="st3" d="M197.9,194.9c0-10.3,5.1-15.5,15.3-15.5c10.2,0,15.3,5.2,15.3,15.5v9.9h-10.6v-9.9c0-3.3-1.5-5-4.6-5h-0.1
		c-3.1,0-4.6,1.7-4.6,5v6.7c0,3.3,3.3,7.3,10,12.1c6.6,4.7,10,10.4,10,17v9.3c0,10.4-5.1,15.5-15.3,15.5c-10.2,0-15.3-5.2-15.3-15.5
		v-9.9h10.6v9.9c0,3.3,1.6,5,4.7,5c3.1,0,4.6-1.7,4.6-5v-8.4c0-3.6-3.3-7.7-10-12.5c-6.6-4.7-10-10.5-10-17.3V194.9z"/>
	<path class="st3" d="M265,180.5V191h-10v63.3h-10.6V191h-10v-10.5H265z"/>
	<path class="st3" d="M271.8,180.5h15.5c9.4,0,14.2,5.2,14.2,15.5v11.1c0,6.5-2.8,10.8-8.4,12.8l12,34.3h-11.7l-9.6-32.4l-1.4,0.2
		v32.3h-10.6V180.5z M282.4,191v21.1h2.4c1.5,0,2.5-0.1,3-0.3c1.9-0.8,2.9-2.3,2.9-4.7v-11.1c0-3.4-1.5-5-4.6-5H282.4z"/>
	<path class="st3" d="M340.7,228.1l3.5,26.2h-10.8l-2.1-15.6h-10.9l-2.1,15.6h-10.7l3.5-26.1l7.5-47.7h14.6L340.7,228.1z
		 M329.9,228.1l-4.1-30.7l-4.1,30.7H329.9z"/>
	<path class="st3" d="M376.9,180.5V191h-10v63.3h-10.6V191h-10v-10.5H376.9z"/>
	<path class="st3" d="M383.7,180.5h27.6V191h-17v21.1h14.6v10.5h-14.6v21.1h17v10.5h-27.6V180.5z"/>
	<path class="st3" d="M449,240c0,10.3-5.1,15.5-15.3,15.5c-10.2,0-15.3-5.2-15.3-15.5v-45.1c0-10.3,5.1-15.5,15.3-15.5
		c10.2,0,15.3,5.2,15.3,15.5v9.9h-10.6v-9.9c0-3.3-1.5-5-4.6-5h-0.1c-3.1,0-4.6,1.7-4.6,5V240c0,3.3,1.5,5,4.6,5
		c3.1,0,4.7-1.7,4.7-5v-17.3h-4.6v-10.5H449V240z"/>
	<path class="st3" d="M458.2,180.5h10.6v73.8h-10.6V180.5z"/>
	<path class="st3" d="M478.1,194.9c0-10.3,5.1-15.5,15.3-15.5c10.2,0,15.3,5.2,15.3,15.5v9.9H498v-9.9c0-3.3-1.5-5-4.6-5h-0.1
		c-3.1,0-4.6,1.7-4.6,5v6.7c0,3.3,3.3,7.3,10,12.1c6.6,4.7,10,10.4,10,17v9.3c0,10.4-5.1,15.5-15.3,15.5c-10.2,0-15.3-5.2-15.3-15.5
		v-9.9h10.6v9.9c0,3.3,1.6,5,4.7,5c3.1,0,4.6-1.7,4.6-5v-8.4c0-3.6-3.3-7.7-10-12.5c-6.6-4.7-10-10.5-10-17.3V194.9z"/>
	<path class="st3" d="M545.2,180.5V191h-10v63.3h-10.6V191h-10v-10.5H545.2z"/>
</g>
</svg>
