<svg aria-hidden="true" style="position: absolute; width: 0; height: 0; overflow: hidden;" version="1.1" xmlns="http://www.w3.org/2000/svg" xmlns:xlink="http://www.w3.org/1999/xlink">
<defs>
<symbol id="icon-light-dark-mode" viewBox="0 0 32 32">
<path d="M0.5 16c0 8.56 6.94 15.5 15.5 15.5s15.5-6.94 15.5-15.5-6.94-15.5-15.5-15.5-15.5 6.94-15.5 15.5zM16 27.5v-23c6.357 0 11.5 5.144 11.5 11.5 0 6.357-5.144 11.5-11.5 11.5z"></path>
</symbol>
<symbol id="icon-visual-studio" viewBox="0 0 32 32">
<path d="M4.124 13.252l1.358 0.548v4.398l-1.371 0.548-2.18-2.168-1.383 1.071-0.548-0.274v-2.754l0.548-0.262 1.383 1.084 2.192-2.193zM0.548 15.184v1.669l0.823-0.848-0.823-0.822zM2.691 16.006l1.421 1.121v-2.243l-1.421 1.122z"></path>
<path d="M9.994 14.341l-1.227 3.313h-0.428l-1.201-3.313h0.432l0.917 2.627c0.029 0.085 0.052 0.183 0.067 0.294h0.009c0.012-0.093 0.037-0.192 0.076-0.298l0.936-2.623h0.419z"></path>
<path d="M10.471 14.687c-0.068 0-0.126-0.023-0.173-0.069s-0.072-0.105-0.072-0.176c0-0.071 0.024-0.13 0.072-0.177s0.106-0.071 0.173-0.071c0.069 0 0.128 0.024 0.177 0.071s0.072 0.106 0.072 0.177c0 0.068-0.024 0.126-0.072 0.173s-0.107 0.072-0.177 0.072zM10.656 17.654h-0.379v-2.366h0.379v2.366z"></path>
<path d="M11.138 17.568v-0.407c0.206 0.152 0.434 0.229 0.681 0.229 0.332 0 0.499-0.111 0.499-0.332 0-0.063-0.014-0.117-0.043-0.161s-0.067-0.083-0.116-0.117-0.106-0.064-0.171-0.091c-0.066-0.027-0.136-0.055-0.211-0.084-0.105-0.041-0.197-0.084-0.276-0.126s-0.146-0.090-0.199-0.143-0.093-0.114-0.12-0.181c-0.027-0.067-0.041-0.147-0.041-0.238 0-0.111 0.026-0.209 0.076-0.294s0.119-0.157 0.203-0.215c0.085-0.057 0.181-0.101 0.29-0.131s0.221-0.044 0.336-0.044c0.205 0 0.388 0.036 0.55 0.106v0.384c-0.174-0.114-0.374-0.171-0.601-0.171-0.071 0-0.135 0.008-0.192 0.024s-0.106 0.039-0.147 0.068c-0.041 0.029-0.072 0.064-0.094 0.105s-0.034 0.086-0.034 0.135c0 0.061 0.011 0.113 0.034 0.155s0.055 0.079 0.098 0.111 0.096 0.061 0.157 0.087c0.061 0.026 0.132 0.054 0.21 0.086 0.105 0.040 0.199 0.081 0.282 0.124s0.154 0.090 0.213 0.143c0.059 0.053 0.104 0.114 0.135 0.184s0.047 0.152 0.047 0.247c0 0.117-0.026 0.219-0.078 0.305s-0.121 0.158-0.207 0.215c-0.086 0.057-0.186 0.099-0.298 0.127s-0.23 0.041-0.354 0.041c-0.242-0.001-0.454-0.047-0.632-0.141z"></path>
<path d="M15.059 17.654h-0.379v-0.374h-0.009c-0.157 0.286-0.401 0.429-0.73 0.429-0.564 0-0.846-0.336-0.846-1.008v-1.414h0.376v1.354c0 0.499 0.191 0.749 0.573 0.749 0.185 0 0.337-0.068 0.456-0.204s0.179-0.314 0.179-0.535v-1.363h0.379v2.366z"></path>
<path d="M17.376 17.654h-0.379v-0.369h-0.009c-0.165 0.283-0.407 0.425-0.727 0.425-0.236 0-0.42-0.063-0.553-0.188s-0.2-0.29-0.2-0.497c0-0.442 0.26-0.699 0.781-0.772l0.709-0.099c0-0.402-0.163-0.603-0.488-0.603-0.285 0-0.542 0.097-0.771 0.291v-0.388c0.232-0.148 0.501-0.222 0.804-0.222 0.556 0 0.834 0.294 0.834 0.882v1.539zM16.997 16.457l-0.571 0.079c-0.176 0.024-0.308 0.068-0.398 0.131s-0.134 0.173-0.134 0.331c0 0.116 0.041 0.21 0.124 0.283s0.192 0.11 0.329 0.11c0.188 0 0.343-0.066 0.466-0.198s0.184-0.298 0.184-0.5v-0.236z"></path>
<path d="M17.948 14.151h0.379v3.502h-0.379v-3.502z"></path>
<path d="M19.51 17.519v-0.457c0.052 0.046 0.115 0.087 0.188 0.125s0.15 0.068 0.231 0.094c0.081 0.026 0.162 0.045 0.244 0.059s0.157 0.021 0.226 0.021c0.239 0 0.417-0.044 0.535-0.133s0.177-0.216 0.177-0.383c0-0.089-0.020-0.167-0.059-0.233s-0.094-0.127-0.163-0.181-0.151-0.107-0.246-0.157c-0.094-0.050-0.197-0.103-0.306-0.158-0.116-0.059-0.223-0.118-0.323-0.178s-0.187-0.126-0.261-0.199c-0.074-0.072-0.132-0.154-0.174-0.246s-0.064-0.199-0.064-0.322c0-0.151 0.033-0.283 0.099-0.394s0.153-0.204 0.261-0.276 0.231-0.126 0.369-0.162c0.137-0.036 0.278-0.053 0.422-0.053 0.326 0 0.564 0.039 0.714 0.118v0.436c-0.196-0.136-0.447-0.203-0.753-0.203-0.085 0-0.169 0.009-0.254 0.026s-0.16 0.047-0.226 0.086c-0.066 0.040-0.12 0.092-0.162 0.155s-0.063 0.14-0.063 0.231c0 0.085 0.016 0.158 0.047 0.219s0.078 0.117 0.14 0.169c0.061 0.051 0.137 0.1 0.225 0.148s0.191 0.1 0.306 0.157c0.118 0.059 0.231 0.12 0.337 0.185s0.199 0.136 0.279 0.215c0.080 0.079 0.144 0.166 0.191 0.261s0.071 0.205 0.071 0.328c0 0.163-0.032 0.302-0.096 0.414s-0.15 0.205-0.259 0.276c-0.109 0.071-0.234 0.122-0.376 0.154s-0.291 0.047-0.448 0.047c-0.052 0-0.117-0.004-0.194-0.012s-0.156-0.021-0.236-0.037-0.156-0.036-0.227-0.060c-0.073-0.026-0.13-0.052-0.173-0.082z"></path>
<path d="M23.001 17.631c-0.089 0.049-0.207 0.074-0.353 0.074-0.414 0-0.621-0.231-0.621-0.693v-1.4h-0.407v-0.323h0.407v-0.578l0.379-0.123v0.7h0.596v0.323h-0.596v1.333c0 0.159 0.027 0.272 0.081 0.339s0.143 0.102 0.268 0.102c0.096 0 0.178-0.026 0.247-0.079v0.324z"></path>
<path d="M25.349 17.654h-0.379v-0.374h-0.009c-0.157 0.286-0.401 0.429-0.73 0.429-0.564 0-0.846-0.336-0.846-1.008v-1.414h0.376v1.354c0 0.499 0.191 0.749 0.573 0.749 0.185 0 0.337-0.068 0.456-0.204s0.179-0.314 0.179-0.535v-1.363h0.379l0.001 2.366z"></path>
<path d="M28.062 17.654h-0.379v-0.402h-0.009c-0.176 0.305-0.447 0.457-0.813 0.457-0.297 0-0.535-0.106-0.712-0.317s-0.267-0.5-0.267-0.865c0-0.391 0.099-0.704 0.296-0.94s0.46-0.354 0.788-0.354c0.325 0 0.561 0.128 0.709 0.384h0.009v-1.465h0.379v3.502zM27.683 16.584v-0.349c0-0.191-0.063-0.352-0.189-0.485s-0.286-0.199-0.481-0.199c-0.231 0-0.413 0.085-0.545 0.254s-0.199 0.404-0.199 0.703c0 0.273 0.064 0.488 0.191 0.646s0.297 0.237 0.512 0.237c0.211 0 0.383-0.076 0.514-0.229s0.198-0.346 0.198-0.578z"></path>
<path d="M28.953 14.687c-0.067 0-0.126-0.023-0.173-0.069s-0.072-0.105-0.072-0.176c0-0.071 0.024-0.13 0.072-0.177s0.105-0.071 0.173-0.071c0.069 0 0.128 0.024 0.177 0.071s0.073 0.106 0.073 0.177c0 0.068-0.024 0.126-0.073 0.173s-0.108 0.072-0.177 0.072zM29.137 17.654h-0.379v-2.366h0.379v2.366z"></path>
<path d="M30.822 17.709c-0.349 0-0.629-0.111-0.837-0.331s-0.313-0.514-0.313-0.879c0-0.398 0.109-0.707 0.326-0.931s0.511-0.335 0.881-0.335c0.352 0 0.628 0.109 0.826 0.326s0.297 0.518 0.297 0.903c0 0.378-0.106 0.679-0.32 0.907s-0.499 0.341-0.858 0.341zM30.849 15.551c-0.244 0-0.436 0.083-0.578 0.248s-0.212 0.394-0.212 0.685c0 0.281 0.072 0.501 0.215 0.663s0.335 0.242 0.576 0.242c0.245 0 0.433-0.079 0.565-0.238s0.198-0.384 0.198-0.677c0-0.296-0.066-0.524-0.198-0.684s-0.321-0.24-0.566-0.24z"></path>
</symbol>
<symbol id="icon-html-css" viewBox="0 0 32 32">
<path d="M3.262 11.161h-0.306v-0.555h-0.533v0.555h-0.306v-1.313h0.306v0.549h0.533v-0.549h0.306v1.313z"></path>
<path d="M4.431 9.848v0.241h-0.369v1.071h-0.304v-1.071h-0.369v-0.241h1.043z"></path>
<path d="M5.263 10.632c0.011 0.024 0.022 0.050 0.032 0.076 0.010-0.026 0.021-0.052 0.032-0.077s0.023-0.049 0.035-0.072l0.337-0.664c0.006-0.011 0.013-0.020 0.019-0.027s0.013-0.011 0.021-0.014 0.017-0.004 0.027-0.004c0.010 0 0.021 0 0.034 0h0.232v1.312h-0.269v-0.755c0-0.037 0.002-0.076 0.006-0.119l-0.348 0.675c-0.011 0.021-0.026 0.037-0.044 0.047s-0.039 0.016-0.063 0.016h-0.041c-0.023 0-0.044-0.006-0.063-0.016s-0.033-0.027-0.044-0.047l-0.349-0.676c0.003 0.021 0.004 0.042 0.006 0.063s0.002 0.040 0.002 0.057v0.755h-0.269v-1.312h0.232c0.013 0 0.025 0 0.034 0s0.019 0.001 0.027 0.004 0.015 0.008 0.021 0.014c0.006 0.006 0.013 0.015 0.018 0.027l0.338 0.666c0.011 0.022 0.022 0.046 0.034 0.071z"></path>
<path d="M6.554 10.918h0.486v0.243h-0.791v-1.313h0.304v1.069z"></path>
<path d="M0 11.98l0.834 9.345 3.708 0.841 3.708-0.841 0.834-9.345h-9.084zM7.126 14.857h-3.938l0.159 1.776h3.63l-0.308 3.358-2.133 0.49-2.072-0.525-0.126-1.438 1.172-0.040 0.044 0.597 0.994 0.251 1.027-0.239 0.109-1.334h-3.414l-0.359-4.018h5.316l-0.1 1.121z"></path>
<path d="M15.385 10.821c0.008 0 0.014 0.001 0.022 0.004s0.014 0.008 0.021 0.014l0.121 0.127c-0.053 0.069-0.119 0.121-0.199 0.156s-0.174 0.053-0.283 0.053c-0.099 0-0.189-0.017-0.268-0.051s-0.146-0.081-0.201-0.141-0.097-0.131-0.127-0.213c-0.029-0.082-0.044-0.171-0.044-0.267 0-0.098 0.017-0.188 0.051-0.27s0.081-0.152 0.141-0.212c0.061-0.059 0.133-0.106 0.217-0.139s0.177-0.049 0.278-0.049c0.049 0 0.096 0.004 0.139 0.013s0.084 0.021 0.122 0.036c0.037 0.015 0.072 0.034 0.104 0.055s0.060 0.045 0.085 0.071l-0.102 0.138c-0.007 0.008-0.014 0.016-0.023 0.023s-0.022 0.011-0.038 0.011c-0.011 0-0.021-0.002-0.031-0.008s-0.020-0.011-0.031-0.018c-0.011-0.007-0.023-0.014-0.036-0.023s-0.028-0.016-0.046-0.023c-0.018-0.007-0.039-0.012-0.062-0.018s-0.051-0.008-0.083-0.008c-0.055 0-0.106 0.010-0.151 0.029s-0.085 0.047-0.117 0.084c-0.033 0.036-0.058 0.081-0.077 0.132s-0.027 0.109-0.027 0.174c0 0.068 0.009 0.127 0.027 0.179s0.043 0.096 0.075 0.132c0.031 0.036 0.068 0.063 0.111 0.082s0.087 0.028 0.135 0.028c0.027 0 0.053-0.001 0.076-0.004s0.044-0.008 0.064-0.014c0.019-0.007 0.038-0.015 0.056-0.026s0.036-0.024 0.054-0.039c0.008-0.006 0.015-0.011 0.024-0.015 0.007-0.006 0.016-0.008 0.024-0.008z"></path>
<path d="M16.418 10.115c-0.009 0.014-0.018 0.025-0.029 0.033s-0.023 0.011-0.038 0.011c-0.014 0-0.029-0.004-0.044-0.013s-0.034-0.018-0.054-0.029c-0.020-0.011-0.043-0.021-0.069-0.029s-0.055-0.013-0.088-0.013c-0.057 0-0.099 0.012-0.127 0.036s-0.042 0.057-0.042 0.099c0 0.026 0.008 0.048 0.025 0.066s0.039 0.033 0.066 0.045c0.027 0.012 0.059 0.024 0.094 0.035s0.071 0.023 0.108 0.035c0.037 0.013 0.073 0.028 0.108 0.046s0.066 0.039 0.094 0.067c0.027 0.027 0.049 0.060 0.066 0.099s0.025 0.086 0.025 0.14c0 0.061-0.011 0.117-0.032 0.17s-0.051 0.099-0.091 0.138-0.089 0.070-0.148 0.092c-0.059 0.023-0.125 0.034-0.199 0.034-0.041 0-0.082-0.004-0.125-0.012s-0.083-0.020-0.123-0.036c-0.039-0.016-0.077-0.034-0.112-0.054s-0.065-0.044-0.091-0.070l0.090-0.143c0.007-0.011 0.016-0.019 0.028-0.026s0.025-0.010 0.039-0.010c0.018 0 0.036 0.006 0.054 0.017s0.039 0.024 0.062 0.037c0.023 0.014 0.050 0.026 0.080 0.038s0.066 0.017 0.106 0.017c0.055 0 0.098-0.012 0.129-0.036s0.046-0.063 0.046-0.116c0-0.031-0.008-0.056-0.025-0.075s-0.039-0.035-0.066-0.047c-0.027-0.012-0.058-0.024-0.093-0.033s-0.071-0.020-0.107-0.032c-0.037-0.012-0.072-0.026-0.107-0.043s-0.066-0.039-0.093-0.068-0.049-0.063-0.066-0.104c-0.017-0.042-0.025-0.093-0.025-0.154 0-0.049 0.010-0.098 0.029-0.144s0.049-0.089 0.088-0.125c0.039-0.037 0.086-0.066 0.141-0.088s0.12-0.033 0.192-0.033c0.040 0 0.079 0.003 0.117 0.009s0.074 0.016 0.109 0.028c0.034 0.012 0.066 0.027 0.096 0.044s0.056 0.036 0.080 0.058l-0.076 0.141z"></path>
<path d="M17.395 10.115c-0.009 0.014-0.018 0.025-0.029 0.033s-0.023 0.011-0.038 0.011c-0.014 0-0.029-0.004-0.044-0.013s-0.034-0.018-0.054-0.029c-0.020-0.011-0.043-0.021-0.069-0.029s-0.055-0.013-0.088-0.013c-0.057 0-0.099 0.012-0.128 0.036s-0.042 0.057-0.042 0.099c0 0.026 0.008 0.048 0.025 0.066s0.039 0.033 0.066 0.045c0.027 0.012 0.059 0.024 0.094 0.035s0.071 0.023 0.108 0.035c0.037 0.013 0.073 0.028 0.108 0.046s0.066 0.039 0.094 0.067c0.027 0.027 0.049 0.060 0.066 0.099s0.025 0.086 0.025 0.14c0 0.061-0.011 0.117-0.032 0.17s-0.051 0.099-0.091 0.138-0.089 0.070-0.148 0.092c-0.059 0.023-0.125 0.034-0.199 0.034-0.041 0-0.082-0.004-0.125-0.012s-0.083-0.020-0.123-0.036c-0.039-0.016-0.077-0.034-0.112-0.054s-0.065-0.044-0.091-0.070l0.090-0.143c0.007-0.011 0.016-0.019 0.028-0.026s0.025-0.010 0.039-0.010c0.018 0 0.036 0.006 0.054 0.017s0.039 0.024 0.062 0.037c0.023 0.014 0.049 0.026 0.080 0.038s0.066 0.017 0.106 0.017c0.055 0 0.098-0.012 0.129-0.036s0.046-0.063 0.046-0.116c0-0.031-0.008-0.056-0.025-0.075s-0.039-0.035-0.066-0.047c-0.027-0.012-0.058-0.024-0.093-0.033s-0.071-0.020-0.108-0.032c-0.037-0.012-0.073-0.026-0.107-0.043s-0.066-0.039-0.093-0.068-0.049-0.063-0.066-0.104c-0.017-0.042-0.025-0.093-0.025-0.154 0-0.049 0.010-0.098 0.029-0.144s0.049-0.089 0.087-0.125c0.039-0.037 0.086-0.066 0.141-0.088s0.12-0.033 0.192-0.033c0.040 0 0.079 0.003 0.117 0.009s0.074 0.016 0.109 0.028c0.034 0.012 0.066 0.027 0.096 0.044s0.056 0.036 0.080 0.058l-0.076 0.141z"></path>
<path d="M11.421 11.98l0.834 9.345 3.708 0.841 3.708-0.841 0.834-9.345h-9.084zM18.277 19.894l-2.327 0.536-0.009-0.002-2.179-0.488-0.154-1.565 1.034 0.172 0.050 0.558 1.24 0.276 1.304-0.282 0.138-1.618h-2.781v-1.121h2.881l0.148-1.666h-4.328l-0.1-1.121h5.655l-0.572 6.321z"></path>
<path d="M27.249 10.685c0 0.073-0.009 0.14-0.027 0.2s-0.046 0.112-0.083 0.154c-0.037 0.043-0.083 0.076-0.139 0.1s-0.121 0.036-0.198 0.036c-0.034 0-0.068-0.002-0.101-0.006s-0.068-0.009-0.104-0.018l0.016-0.178c0.001-0.016 0.008-0.028 0.019-0.038s0.027-0.014 0.046-0.014c0.010 0 0.023 0.002 0.038 0.005s0.033 0.005 0.054 0.005c0.029 0 0.055-0.004 0.077-0.012s0.040-0.022 0.054-0.041 0.025-0.044 0.032-0.074c0.008-0.031 0.011-0.069 0.011-0.114v-0.843h0.304v0.838z"></path>
<path d="M28.197 10.115c-0.009 0.014-0.018 0.025-0.028 0.033s-0.023 0.011-0.038 0.011c-0.014 0-0.029-0.004-0.044-0.013s-0.034-0.018-0.054-0.029c-0.020-0.011-0.043-0.021-0.069-0.029s-0.055-0.013-0.088-0.013c-0.057 0-0.099 0.012-0.128 0.036s-0.042 0.057-0.042 0.099c0 0.026 0.008 0.048 0.025 0.066s0.039 0.033 0.066 0.045c0.027 0.012 0.059 0.024 0.094 0.035s0.071 0.023 0.108 0.035c0.037 0.013 0.073 0.028 0.108 0.046s0.066 0.039 0.094 0.067c0.027 0.027 0.049 0.060 0.066 0.099s0.025 0.086 0.025 0.14c0 0.061-0.011 0.117-0.031 0.17s-0.051 0.099-0.091 0.138-0.089 0.070-0.148 0.092c-0.059 0.023-0.125 0.034-0.199 0.034-0.041 0-0.082-0.004-0.125-0.012s-0.083-0.020-0.123-0.036c-0.039-0.016-0.077-0.034-0.112-0.054s-0.065-0.044-0.091-0.070l0.090-0.143c0.007-0.011 0.016-0.019 0.028-0.026s0.025-0.010 0.039-0.010c0.018 0 0.036 0.006 0.054 0.017s0.039 0.024 0.063 0.037c0.023 0.014 0.049 0.026 0.079 0.038s0.066 0.017 0.106 0.017c0.055 0 0.098-0.012 0.129-0.036s0.046-0.063 0.046-0.116c0-0.031-0.009-0.056-0.025-0.075s-0.039-0.035-0.066-0.047-0.058-0.024-0.093-0.033c-0.035-0.009-0.071-0.020-0.108-0.032s-0.073-0.026-0.107-0.043c-0.035-0.017-0.066-0.039-0.093-0.068s-0.049-0.063-0.066-0.104c-0.017-0.042-0.025-0.093-0.025-0.154 0-0.049 0.010-0.098 0.030-0.144s0.049-0.089 0.087-0.125c0.038-0.037 0.086-0.066 0.141-0.088s0.12-0.033 0.192-0.033c0.040 0 0.079 0.003 0.117 0.009s0.074 0.016 0.109 0.028c0.034 0.012 0.066 0.027 0.096 0.044s0.056 0.036 0.080 0.058l-0.078 0.141z"></path>
<path d="M22.916 11.98l0.834 9.345 3.708 0.841 3.709-0.841 0.834-9.345h-9.084zM27.026 20.863l-2.386-0.537-0.134-1.521 0.936 0.28v0.181l0.462 0.128v-5.822h1.121v7.291zM30.589 14.694h-1.524l-0.031 1.749 1.368-0.097-0.37 3.964-2.19 0.502v-1.060l1.073-0.282 0.18-1.708-1.203 0.060 0.067-4.249h2.727l-0.098 1.121z"></path>
</symbol>
<symbol id="icon-yoast" viewBox="0 0 32 32">
<path d="M10.58 12.299c-2.473 0-3.462 1.659-3.462 3.508 0 1.921 0.974 3.581 3.462 3.581 2.48 0 3.456-1.738 3.451-3.467-0.006-2.107-1.072-3.621-3.451-3.621zM9.082 15.911c0.060-2.473 1.959-2.47 2.594-1.584 0.578 0.807 0.697 3.567-1.096 3.547-0.826-0.009-1.474-0.567-1.498-1.963z"></path>
<path d="M30.636 17.672v-3.582h1.281v-1.555h-1.281v-1.878h-1.978v1.878h-1.003v1.555h1.003v3.379c0 1.921 1.339 3.062 2.752 3.298l0.591-1.59c-0.824-0.104-1.357-0.72-1.364-1.504z"></path>
<path d="M20.656 17.105v-2.692c0-0.098-0.006-0.191-0.016-0.281-0.171-2.175-3.261-2.171-5.654-1.336l0.691 1.391c1.558-0.74 2.491-0.549 2.817-0.184 0.008 0.009 0.017 0.019 0.024 0.029 0.001 0.001 0.002 0.002 0.003 0.004 0.166 0.224 0.126 0.579 0.126 0.857-2.036 0-4.203 0.271-4.203 2.504 0 1.698 2.127 2.79 4.35 1.172l0.33 0.796h1.905c-0.171-0.934-0.374-1.735-0.374-2.259zM18.664 17.090c-1.567 1.753-3.001 0.103-1.532-0.617 0.433-0.148 1.019-0.154 1.532-0.154v0.771z"></path>
<path d="M23.696 14.267c0-0.663 1.062-0.974 2.737-0.209l0.579-1.407c-2.254-0.681-5.332-0.742-5.352 1.616-0.009 1.13 0.716 1.738 1.759 2.126 0.723 0.269 1.766 0.408 1.764 0.984-0.004 0.752-1.622 0.867-3.094-0.144l-0.595 1.526c2.009 0.999 5.744 1.028 5.724-1.477-0.020-2.477-3.521-2.053-3.521-3.013z"></path>
<path d="M6.282 8.906l-2.868 7.964-1.373-4.301h-2.042l2.286 5.873c0.194 0.5 0.195 1.055 0 1.555-0.256 0.656-0.681 1.216-1.718 1.356v1.741c2.018 0 3.109-1.241 4.082-3.96l3.816-10.228h-2.184z"></path>
</symbol>
<symbol id="icon-woocommerce" viewBox="0 0 32 32">
<path d="M6.421 14.595c-0.159-0.031-0.314 0.057-0.461 0.275-0.119 0.168-0.195 0.346-0.235 0.527-0.022 0.102-0.031 0.213-0.031 0.324 0 0.129 0.027 0.266 0.080 0.403 0.066 0.172 0.155 0.266 0.261 0.288 0.111 0.022 0.231-0.027 0.359-0.142 0.164-0.146 0.275-0.363 0.337-0.656 0.022-0.102 0.031-0.213 0.031-0.328 0-0.129-0.027-0.266-0.080-0.403-0.066-0.173-0.155-0.266-0.261-0.289z"></path>
<path d="M9.2 14.595c-0.159-0.031-0.314 0.057-0.461 0.275-0.119 0.168-0.195 0.346-0.235 0.527-0.022 0.102-0.031 0.213-0.031 0.324 0 0.129 0.027 0.266 0.080 0.403 0.066 0.172 0.155 0.266 0.261 0.288 0.111 0.022 0.231-0.027 0.359-0.142 0.164-0.146 0.275-0.363 0.337-0.656 0.018-0.102 0.031-0.213 0.031-0.328 0-0.129-0.027-0.266-0.080-0.403-0.066-0.173-0.155-0.266-0.261-0.289z"></path>
<path d="M9.829 12.774h-8.823c-0.558 0-1.011 0.456-1.006 1.011v3.368c0 0.558 0.452 1.011 1.011 1.011h4.179l1.91 1.064-0.434-1.064h3.164c0.558 0 1.011-0.452 1.011-1.011v-3.368c-0.001-0.559-0.453-1.011-1.011-1.011zM4.436 17.21c0.009 0.111-0.009 0.208-0.053 0.293-0.053 0.098-0.133 0.151-0.235 0.159-0.115 0.009-0.235-0.044-0.35-0.164-0.412-0.421-0.74-1.050-0.979-1.888-0.288 0.568-0.501 0.993-0.638 1.276-0.261 0.501-0.483 0.758-0.669 0.771-0.119 0.009-0.221-0.093-0.31-0.306-0.226-0.581-0.469-1.702-0.731-3.364-0.013-0.115 0.009-0.217 0.071-0.297 0.062-0.084 0.155-0.129 0.279-0.137 0.226-0.018 0.354 0.089 0.386 0.319 0.137 0.926 0.288 1.711 0.448 2.353l0.971-1.848c0.089-0.168 0.199-0.257 0.333-0.266 0.195-0.013 0.314 0.111 0.363 0.373 0.111 0.589 0.252 1.090 0.421 1.516 0.115-1.126 0.31-1.937 0.585-2.438 0.066-0.124 0.164-0.186 0.293-0.195 0.102-0.009 0.195 0.022 0.279 0.089s0.129 0.151 0.138 0.252c0.004 0.080-0.009 0.146-0.044 0.213-0.173 0.319-0.314 0.855-0.43 1.6-0.111 0.723-0.151 1.285-0.124 1.689zM7.157 16.514c-0.266 0.443-0.612 0.665-1.041 0.665-0.076 0-0.155-0.009-0.239-0.027-0.314-0.066-0.549-0.235-0.709-0.514-0.142-0.244-0.213-0.536-0.213-0.877 0-0.456 0.115-0.873 0.346-1.249 0.27-0.443 0.616-0.665 1.041-0.665 0.076 0 0.155 0.009 0.239 0.027 0.31 0.066 0.549 0.235 0.709 0.514 0.142 0.239 0.213 0.527 0.213 0.873 0 0.456-0.115 0.873-0.346 1.254zM9.936 16.514c-0.266 0.443-0.611 0.665-1.041 0.665-0.076 0-0.155-0.009-0.239-0.027-0.314-0.066-0.549-0.235-0.709-0.514-0.142-0.244-0.213-0.536-0.213-0.877 0-0.456 0.115-0.873 0.346-1.249 0.27-0.443 0.616-0.665 1.041-0.665 0.076 0 0.155 0.009 0.239 0.027 0.314 0.066 0.549 0.235 0.709 0.514 0.142 0.239 0.213 0.527 0.213 0.873 0 0.456-0.115 0.873-0.346 1.254z"></path>
<path d="M11.961 14.347c-0.297 0.293-0.443 0.665-0.443 1.117 0 0.483 0.146 0.878 0.439 1.174s0.674 0.448 1.148 0.448c0.137 0 0.293-0.022 0.461-0.071v-0.718c-0.155 0.044-0.288 0.066-0.403 0.066-0.235 0-0.421-0.080-0.563-0.235-0.142-0.159-0.213-0.373-0.213-0.643 0-0.252 0.071-0.461 0.208-0.621 0.142-0.164 0.314-0.244 0.527-0.244 0.137 0 0.284 0.022 0.443 0.066v-0.718c-0.146-0.040-0.31-0.057-0.483-0.057-0.452-0.004-0.824 0.143-1.121 0.435zM15.036 13.908c-0.408 0-0.727 0.137-0.957 0.408s-0.341 0.651-0.341 1.139c0 0.527 0.115 0.931 0.341 1.21s0.558 0.421 0.992 0.421c0.421 0 0.744-0.142 0.971-0.421s0.341-0.674 0.341-1.179c0-0.505-0.115-0.895-0.346-1.17-0.235-0.27-0.567-0.408-1.001-0.408zM15.386 16.212c-0.080 0.124-0.199 0.186-0.35 0.186-0.142 0-0.248-0.062-0.324-0.186s-0.111-0.373-0.111-0.749c0-0.581 0.146-0.869 0.443-0.869 0.31 0 0.47 0.293 0.47 0.882-0.004 0.364-0.049 0.612-0.129 0.736zM18.573 13.992l-0.159 0.678c-0.040 0.173-0.080 0.35-0.115 0.532l-0.089 0.47c-0.084-0.47-0.199-1.028-0.346-1.679h-1.028l-0.386 3.018h0.771l0.208-2.078 0.527 2.078h0.549l0.505-2.074 0.217 2.074h0.806l-0.407-3.018-1.054-0.001zM22.264 13.992l-0.159 0.678c-0.040 0.173-0.080 0.35-0.115 0.532l-0.089 0.47c-0.084-0.47-0.199-1.028-0.346-1.679h-1.028l-0.386 3.018h0.771l0.208-2.078 0.527 2.078h0.549l0.501-2.074 0.217 2.074h0.806l-0.407-3.018h-1.050zM24.773 15.818h0.723v-0.625h-0.723v-0.554h0.833v-0.643h-1.649v3.018h1.653v-0.642h-0.837v-0.554zM27.905 15.34c0.084-0.137 0.129-0.279 0.129-0.426 0-0.284-0.111-0.509-0.332-0.674s-0.527-0.248-0.909-0.248h-0.948v3.018h0.816v-1.374h0.013l0.66 1.374h0.86l-0.651-1.361c0.155-0.071 0.279-0.173 0.363-0.31zM26.656 15.291v-0.718c0.195 0.004 0.332 0.036 0.417 0.098s0.124 0.159 0.124 0.301c-0.001 0.208-0.183 0.314-0.541 0.319zM28.512 14.347c-0.297 0.293-0.443 0.665-0.443 1.117 0 0.483 0.146 0.878 0.439 1.174s0.674 0.448 1.148 0.448c0.137 0 0.293-0.022 0.461-0.071v-0.718c-0.155 0.044-0.288 0.066-0.403 0.066-0.235 0-0.421-0.080-0.563-0.235-0.142-0.159-0.212-0.373-0.212-0.643 0-0.252 0.071-0.461 0.208-0.621 0.142-0.164 0.314-0.244 0.527-0.244 0.137 0 0.284 0.022 0.443 0.066v-0.718c-0.146-0.040-0.31-0.057-0.483-0.057-0.448-0.004-0.824 0.143-1.121 0.435zM31.158 16.363v-0.549h0.723v-0.625h-0.723v-0.554h0.837v-0.643h-1.649v3.018h1.653v-0.642h-0.842v-0.005z"></path>
</symbol>
<symbol id="icon-wordpress" viewBox="0 0 32 32">
<path d="M18.192 15.159h-1.298v0.137c0.406 0 0.471 0.087 0.471 0.602v0.928c0 0.515-0.065 0.609-0.471 0.609-0.312-0.044-0.522-0.211-0.812-0.529l-0.334-0.363c0.449-0.080 0.689-0.363 0.689-0.682 0-0.399-0.341-0.703-0.979-0.703h-1.276v0.137c0.406 0 0.471 0.087 0.471 0.602v0.928c0 0.515-0.065 0.609-0.471 0.609v0.137h1.443v-0.137c-0.406 0-0.471-0.094-0.471-0.609v-0.261h0.123l0.805 1.008h2.11c1.037 0 1.486-0.551 1.486-1.211s-0.449-1.203-1.486-1.203zM15.154 16.341v-0.964h0.297c0.326 0 0.471 0.225 0.471 0.486 0 0.254-0.145 0.479-0.471 0.479h-0.297zM18.214 17.349h-0.051c-0.261 0-0.297-0.065-0.297-0.399v-1.573c0 0 0.319 0 0.348 0 0.754 0 0.892 0.551 0.892 0.979 0 0.442-0.137 0.993-0.892 0.993z"></path>
<path d="M10.144 16.609l0.5-1.479c0.145-0.428 0.080-0.551-0.384-0.551v-0.145h1.363v0.145c-0.457 0-0.566 0.109-0.747 0.638l-0.827 2.48h-0.094l-0.739-2.269-0.754 2.269h-0.094l-0.804-2.48c-0.174-0.529-0.29-0.638-0.711-0.638v-0.145h1.61v0.145c-0.428 0-0.544 0.101-0.391 0.551l0.486 1.479 0.732-2.176h0.137l0.717 2.176z"></path>
<path d="M12.609 17.668c-0.797 0-1.45-0.587-1.45-1.305 0-0.711 0.652-1.298 1.45-1.298s1.45 0.588 1.45 1.298c0 0.718-0.652 1.305-1.45 1.305zM12.609 15.289c-0.667 0-0.899 0.602-0.899 1.073 0 0.479 0.232 1.073 0.899 1.073 0.674 0 0.906-0.594 0.906-1.073 0-0.471-0.232-1.073-0.906-1.073z"></path>
<path d="M21.469 17.428v0.145h-1.661v-0.145c0.486 0 0.573-0.123 0.573-0.848v-1.16c0-0.725-0.087-0.841-0.573-0.841v-0.145h1.501c0.747 0 1.16 0.384 1.16 0.899 0 0.5-0.413 0.892-1.16 0.892h-0.413v0.355c0 0.725 0.087 0.848 0.573 0.848zM21.31 14.695h-0.413v1.262h0.413c0.406 0 0.594-0.283 0.594-0.624 0-0.348-0.189-0.638-0.594-0.638z"></path>
<path d="M27.451 16.892l-0.036 0.131c-0.065 0.239-0.145 0.326-0.66 0.326h-0.101c-0.377 0-0.442-0.087-0.442-0.602v-0.334c0.566 0 0.609 0.051 0.609 0.427h0.137v-1.081h-0.137c0 0.377-0.044 0.428-0.609 0.428v-0.812h0.399c0.515 0 0.594 0.087 0.66 0.326l0.036 0.137h0.116l-0.051-0.681h-2.132v0.137c0.406 0 0.471 0.087 0.471 0.602v0.928c0 0.471-0.056 0.589-0.376 0.606-0.304-0.046-0.513-0.212-0.799-0.527l-0.334-0.363c0.449-0.080 0.689-0.363 0.689-0.682 0-0.399-0.341-0.703-0.979-0.703h-1.276v0.137c0.406 0 0.471 0.087 0.471 0.602v0.928c0 0.515-0.065 0.609-0.471 0.609v0.137h1.443v-0.137c-0.406 0-0.471-0.094-0.471-0.609v-0.261h0.123l0.805 1.008h2.98l0.044-0.681h-0.109zM23.608 16.341v-0.964h0.297c0.326 0 0.471 0.225 0.471 0.486 0 0.254-0.145 0.479-0.471 0.479h-0.297z"></path>
<path d="M28.923 17.668c-0.29 0-0.544-0.152-0.652-0.246-0.036 0.036-0.101 0.145-0.116 0.246h-0.137v-1.001h0.145c0.058 0.479 0.391 0.761 0.819 0.761 0.232 0 0.421-0.131 0.421-0.348 0-0.189-0.167-0.334-0.464-0.471l-0.413-0.196c-0.29-0.138-0.508-0.377-0.508-0.696 0-0.348 0.326-0.645 0.776-0.645 0.239 0 0.442 0.087 0.566 0.189 0.036-0.029 0.073-0.109 0.094-0.196h0.137v0.856h-0.153c-0.051-0.341-0.239-0.624-0.624-0.624-0.203 0-0.392 0.116-0.392 0.297 0 0.189 0.152 0.29 0.501 0.449l0.399 0.196c0.348 0.167 0.486 0.435 0.486 0.652 0.001 0.457-0.398 0.776-0.884 0.776z"></path>
<path d="M31.116 17.668c-0.29 0-0.544-0.152-0.652-0.246-0.036 0.036-0.101 0.145-0.116 0.246h-0.137v-1.001h0.145c0.058 0.479 0.391 0.761 0.819 0.761 0.232 0 0.421-0.131 0.421-0.348 0-0.189-0.167-0.334-0.464-0.471l-0.413-0.196c-0.29-0.138-0.508-0.377-0.508-0.696 0-0.348 0.326-0.645 0.776-0.645 0.239 0 0.442 0.087 0.566 0.189 0.036-0.029 0.073-0.109 0.094-0.196h0.137v0.856h-0.152c-0.051-0.341-0.239-0.624-0.624-0.624-0.203 0-0.392 0.116-0.392 0.297 0 0.189 0.152 0.29 0.501 0.449l0.399 0.196c0.348 0.167 0.486 0.435 0.486 0.652 0.001 0.457-0.398 0.776-0.884 0.776z"></path>
<path d="M3.263 12.933c0.414 0 0.816 0.081 1.194 0.241 0.182 0.077 0.357 0.172 0.521 0.283 0.162 0.11 0.315 0.236 0.454 0.374s0.265 0.292 0.374 0.454c0.111 0.164 0.206 0.339 0.282 0.521 0.16 0.378 0.241 0.779 0.241 1.194s-0.081 0.816-0.241 1.194c-0.077 0.182-0.172 0.357-0.282 0.521-0.11 0.163-0.236 0.315-0.374 0.454s-0.292 0.265-0.454 0.374c-0.164 0.111-0.339 0.206-0.521 0.282-0.378 0.16-0.779 0.241-1.194 0.241s-0.816-0.081-1.194-0.241c-0.182-0.077-0.357-0.172-0.521-0.282-0.163-0.11-0.315-0.236-0.454-0.374s-0.265-0.292-0.374-0.454c-0.111-0.164-0.206-0.339-0.282-0.521-0.16-0.378-0.241-0.779-0.241-1.194s0.081-0.816 0.241-1.194c0.077-0.182 0.172-0.357 0.282-0.521 0.11-0.162 0.236-0.315 0.374-0.454s0.292-0.265 0.454-0.374c0.164-0.111 0.339-0.206 0.521-0.283 0.377-0.161 0.779-0.241 1.194-0.241zM3.263 12.737c-1.802 0-3.263 1.461-3.263 3.263s1.461 3.263 3.263 3.263c1.802 0 3.263-1.461 3.263-3.263s-1.461-3.263-3.263-3.263v0z"></path>
<path d="M0.544 16c0 1.076 0.626 2.006 1.532 2.447l-1.297-3.554c-0.151 0.338-0.236 0.713-0.236 1.107zM5.099 15.863c0-0.336-0.121-0.569-0.224-0.75-0.138-0.224-0.267-0.414-0.267-0.637 0-0.25 0.189-0.482 0.457-0.482 0.012 0 0.024 0.001 0.035 0.002-0.484-0.443-1.128-0.714-1.836-0.714-0.95 0-1.786 0.488-2.272 1.226 0.064 0.002 0.124 0.003 0.175 0.003 0.284 0 0.725-0.034 0.725-0.034 0.146-0.009 0.164 0.207 0.018 0.224 0 0-0.147 0.018-0.311 0.026l0.99 2.945 0.595-1.784-0.424-1.161c-0.146-0.009-0.285-0.026-0.285-0.026-0.147-0.009-0.129-0.232 0.018-0.224 0 0 0.449 0.034 0.716 0.034 0.284 0 0.725-0.034 0.725-0.034 0.147-0.009 0.164 0.207 0.018 0.224 0 0-0.147 0.018-0.311 0.026l0.982 2.923 0.281-0.889c0.124-0.389 0.197-0.664 0.197-0.898zM3.311 16.238l-0.816 2.371c0.244 0.072 0.501 0.111 0.768 0.111 0.317 0 0.621-0.054 0.903-0.154-0.008-0.012-0.014-0.024-0.019-0.038l-0.836-2.289zM5.649 14.696c0.012 0.087 0.018 0.179 0.018 0.279 0 0.276-0.052 0.586-0.207 0.974l-0.83 2.401c0.808-0.471 1.352-1.347 1.352-2.35 0-0.473-0.121-0.918-0.333-1.304z"></path>
</symbol>
<symbol id="icon-down" viewBox="0 0 20 32">
<path d="M8.938 22.019l-8.5-8.5c-0.588-0.588-0.588-1.537 0-2.119l1.413-1.412c0.587-0.588 1.538-0.588 2.119 0l6.025 6.025 6.025-6.025c0.587-0.588 1.538-0.588 2.119 0l1.413 1.412c0.587 0.588 0.587 1.537 0 2.119l-8.5 8.5c-0.575 0.587-1.525 0.587-2.113 0z"></path>
</symbol>
<symbol id="icon-up" viewBox="0 0 20 32">
<path d="M11.063 9.981l8.5 8.5c0.587 0.587 0.587 1.538 0 2.119l-1.413 1.413c-0.587 0.587-1.538 0.587-2.119 0l-6.031-6.019-6.025 6.025c-0.587 0.587-1.538 0.587-2.119 0l-1.419-1.413c-0.588-0.587-0.588-1.538 0-2.119l8.5-8.5c0.588-0.594 1.537-0.594 2.125-0.006z"></path>
</symbol>
<symbol id="icon-circle-right" viewBox="0 0 32 32">
<path d="M16 0.5c8.563 0 15.5 6.938 15.5 15.5s-6.938 15.5-15.5 15.5-15.5-6.938-15.5-15.5 6.938-15.5 15.5-15.5zM23.119 14.938l-8.469-8.469c-0.588-0.588-1.537-0.588-2.119 0l-1.063 1.063c-0.588 0.588-0.588 1.537 0 2.119l6.35 6.35-6.35 6.35c-0.588 0.587-0.588 1.538 0 2.119l1.063 1.063c0.588 0.587 1.537 0.587 2.119 0l8.469-8.469c0.587-0.587 0.587-1.537 0-2.125z"></path>
</symbol>
<symbol id="icon-right" viewBox="0 0 16 32">
<path d="M1.095 2.279l-0.442 0.442c-0.293 0.293-0.293 0.768 0 1.061l12.218 12.218-12.218 12.218c-0.293 0.293-0.293 0.768 0 1.061l0.442 0.442c0.293 0.293 0.768 0.293 1.061 0l13.191-13.191c0.293-0.293 0.293-0.768 0-1.061l-13.191-13.191c-0.293-0.293-0.768-0.293-1.061 0z"></path>
</symbol>
<symbol id="icon-solutions" viewBox="0 0 40 32">
<path d="M33.663 12.275l-0.156-0.244c-0.256 0.019-0.506 0.019-0.763 0l-0.156 0.25c-0.362 0.575-1.069 0.838-1.719 0.631-0.863-0.269-1.438-0.55-2.144-1.131-0.563-0.463-0.7-1.269-0.337-1.9l0.156-0.269c-0.144-0.213-0.269-0.431-0.381-0.662h-0.569c-0.725 0-1.337-0.512-1.475-1.225-0.163-0.856-0.169-1.513 0.006-2.406 0.131-0.706 0.756-1.219 1.475-1.219h0.563c0.113-0.231 0.238-0.45 0.381-0.663l-0.163-0.281c-0.363-0.625-0.225-1.419 0.325-1.894 0.663-0.569 1.231-0.894 2.094-1.188 0.675-0.231 1.419 0.044 1.781 0.662l0.163 0.275c0.256-0.019 0.506-0.019 0.763 0l0.163-0.275c0.362-0.619 1.106-0.894 1.788-0.656 0.831 0.281 1.394 0.6 2.094 1.194 0.55 0.469 0.681 1.263 0.319 1.888l-0.163 0.275c0.144 0.212 0.269 0.431 0.381 0.663h0.319c0.725 0 1.337 0.513 1.475 1.225 0.163 0.856 0.169 1.513-0.006 2.406-0.131 0.706-0.756 1.219-1.475 1.219h-0.313c-0.112 0.231-0.237 0.45-0.381 0.662l0.156 0.269c0.369 0.637 0.219 1.444-0.344 1.906-0.669 0.55-1.244 0.838-2.125 1.119-0.656 0.206-1.369-0.050-1.731-0.631zM34.425 10.119l0.663 1.144c0.419-0.175 0.806-0.4 1.169-0.675l-0.663-1.144 0.4-0.469c0.3-0.356 0.538-0.756 0.688-1.194l0.206-0.581h1.319c0.056-0.444 0.056-0.9 0-1.344h-1.319l-0.206-0.581c-0.156-0.438-0.388-0.838-0.688-1.194l-0.4-0.469 0.656-1.15c-0.356-0.275-0.75-0.5-1.169-0.675l-0.663 1.144-0.606-0.112c-0.456-0.087-0.925-0.087-1.381 0l-0.606 0.112-0.663-1.144c-0.413 0.169-0.806 0.4-1.163 0.675l0.663 1.144-0.4 0.469c-0.3 0.356-0.538 0.756-0.688 1.194l-0.206 0.581h-1.319c-0.056 0.444-0.056 0.9 0 1.344h1.319l0.206 0.581c0.156 0.438 0.387 0.838 0.688 1.194l0.4 0.469-0.663 1.15c0.356 0.275 0.75 0.5 1.169 0.675l0.663-1.144 0.606 0.113c0.456 0.088 0.925 0.088 1.381 0l0.606-0.113zM9.081 28.4v-1.975c-0.806-0.344-1.569-0.788-2.275-1.319l-1.719 0.994c-0.612 0.35-1.381 0.231-1.856-0.288-1.512-1.644-2.406-3.094-3.163-5.506-0.212-0.669 0.069-1.394 0.675-1.75l1.706-0.994c-0.106-0.875-0.106-1.756 0-2.631l-1.706-0.988c-0.606-0.35-0.887-1.081-0.675-1.75 0.756-2.4 1.637-3.85 3.163-5.506 0.475-0.519 1.25-0.638 1.856-0.287l1.713 0.994c0.706-0.531 1.469-0.969 2.275-1.319v-1.975c0-0.706 0.488-1.313 1.175-1.462 2.169-0.487 3.875-0.544 6.356 0 0.688 0.15 1.181 0.762 1.181 1.462v1.975c0.806 0.344 1.569 0.787 2.275 1.313l1.712-0.987c0.613-0.35 1.387-0.231 1.863 0.287 1.681 1.85 2.594 3.494 3.256 5.531 0.212 0.656-0.050 1.369-0.637 1.731l-1.563 0.988c0.106 0.875 0.106 1.756 0 2.631l1.756 1.094c0.538 0.337 0.813 0.975 0.675 1.594-0.431 1.956-2.063 4.038-3.494 5.575-0.475 0.512-1.244 0.625-1.85 0.275l-1.719-0.994c-0.706 0.531-1.469 0.969-2.275 1.319v1.975c0 0.7-0.488 1.313-1.175 1.462-2.344 0.519-4.056 0.512-6.369 0-0.675-0.156-1.162-0.769-1.162-1.469zM11.081 28.012c1.55 0.313 3.156 0.313 4.706 0v-2.981l0.669-0.238c1.050-0.369 2.019-0.931 2.869-1.656l0.538-0.462 2.587 1.494c1.050-1.194 2.125-2.581 2.631-4.075l-2.587-1.494 0.131-0.694c0.2-1.1 0.2-2.219 0-3.319l-0.131-0.694 2.587-1.494c-0.506-1.494-1.581-2.888-2.631-4.075l-2.587 1.494-0.538-0.463c-0.85-0.731-1.813-1.287-2.869-1.656l-0.669-0.237v-2.975c-1.55-0.313-3.156-0.313-4.706 0v2.981l-0.669 0.237c-1.050 0.369-2.019 0.931-2.869 1.656l-0.537 0.463-2.588-1.494c-1.011 1.145-1.813 2.501-2.331 3.991l-0.026 0.084 2.587 1.494-0.131 0.694c-0.2 1.1-0.2 2.219 0 3.319l0.131 0.694-2.587 1.494c0.506 1.494 1.306 2.887 2.356 4.075l2.588-1.494 0.537 0.462c0.85 0.731 1.813 1.288 2.869 1.656l0.669 0.238v2.975zM13.481 21.431c-2.856 0-5.181-2.325-5.181-5.181s2.325-5.181 5.181-5.181 5.181 2.325 5.181 5.181-2.325 5.181-5.181 5.181zM13.481 13.069c-1.75 0-3.181 1.425-3.181 3.181s1.425 3.181 3.181 3.181c1.75 0 3.181-1.425 3.181-3.181s-1.425-3.181-3.181-3.181zM33.663 31.3l-0.156-0.244c-0.256 0.019-0.506 0.019-0.763 0l-0.156 0.25c-0.362 0.575-1.069 0.838-1.719 0.631-0.863-0.269-1.438-0.55-2.144-1.131-0.563-0.462-0.7-1.269-0.337-1.9l0.156-0.269c-0.144-0.212-0.269-0.431-0.381-0.663h-0.569c-0.725 0-1.337-0.512-1.475-1.225-0.163-0.856-0.169-1.512 0.006-2.406 0.131-0.706 0.756-1.219 1.475-1.219h0.563c0.113-0.231 0.238-0.45 0.381-0.663l-0.163-0.281c-0.363-0.625-0.225-1.419 0.325-1.894 0.663-0.569 1.231-0.894 2.094-1.188 0.675-0.231 1.419 0.044 1.781 0.663l0.163 0.275c0.256-0.019 0.506-0.019 0.763 0l0.163-0.275c0.362-0.619 1.106-0.894 1.788-0.656 0.831 0.281 1.394 0.6 2.094 1.194 0.55 0.469 0.681 1.262 0.319 1.887l-0.163 0.275c0.144 0.212 0.269 0.431 0.381 0.663h0.319c0.725 0 1.337 0.512 1.475 1.225 0.163 0.856 0.169 1.512-0.006 2.406-0.131 0.706-0.756 1.219-1.475 1.219h-0.313c-0.112 0.231-0.237 0.45-0.381 0.663l0.156 0.269c0.369 0.637 0.219 1.444-0.344 1.906-0.669 0.55-1.244 0.837-2.125 1.119-0.656 0.2-1.369-0.056-1.731-0.631zM34.425 29.137l0.663 1.144c0.419-0.175 0.806-0.4 1.169-0.675l-0.663-1.144 0.4-0.469c0.3-0.356 0.538-0.756 0.688-1.194l0.206-0.581h1.319c0.056-0.444 0.056-0.9 0-1.344h-1.319l-0.206-0.581c-0.156-0.438-0.388-0.837-0.688-1.194l-0.4-0.469 0.663-1.144c-0.356-0.275-0.75-0.5-1.169-0.675l-0.663 1.144-0.606-0.113c-0.456-0.087-0.925-0.087-1.381 0l-0.606 0.113-0.663-1.144c-0.419 0.175-0.806 0.4-1.169 0.675l0.663 1.144-0.4 0.469c-0.3 0.356-0.538 0.756-0.688 1.194l-0.206 0.581h-1.319c-0.056 0.444-0.056 0.9 0 1.344h1.319l0.206 0.581c0.156 0.438 0.387 0.837 0.688 1.194l0.4 0.469-0.663 1.144c0.356 0.275 0.75 0.5 1.169 0.675l0.663-1.144 0.606 0.113c0.456 0.087 0.925 0.087 1.381 0l0.606-0.113zM35 25.5c0-1.106-0.894-2-2-2s-2 0.894-2 2 0.894 2 2 2 2-0.894 2-2zM35 6.481c0-1.106-0.894-2-2-2s-2 0.894-2 2 0.894 2 2 2 2-0.9 2-2z"></path>
</symbol>
<symbol id="icon-communication" viewBox="0 0 36 32">
<path d="M26 12c0-5.525-5.819-10-13-10s-13 4.475-13 10c0 2.144 0.881 4.119 2.375 5.75-0.837 1.887-2.219 3.387-2.237 3.406-0.138 0.144-0.175 0.356-0.094 0.544s0.256 0.3 0.456 0.3c2.288 0 4.181-0.769 5.544-1.563 2.013 0.981 4.394 1.563 6.956 1.563 7.181 0 13-4.475 13-10zM33.625 25.75c1.494-1.625 2.375-3.606 2.375-5.75 0-4.181-3.344-7.762-8.081-9.256 0.056 0.412 0.081 0.831 0.081 1.256 0 6.619-6.731 12-15 12-0.675 0-1.331-0.050-1.981-0.119 1.969 3.594 6.594 6.119 11.981 6.119 2.563 0 4.944-0.575 6.956-1.563 1.363 0.794 3.256 1.563 5.544 1.563 0.2 0 0.381-0.119 0.456-0.3 0.081-0.181 0.044-0.394-0.094-0.544-0.019-0.019-1.4-1.512-2.237-3.406z"></path>
</symbol>
<symbol id="icon-dove" viewBox="0 0 32 32">
<path d="M18 10.45v-1.756c-1.762-2.269-2.944-4.956-3.381-7.825-0.131-0.844-1.188-1.175-1.738-0.519-1.319 1.556-2.356 3.381-3.056 5.406 2.137 2.394 5 4.037 8.175 4.694zM25 4c-2.762 0-5 2.244-5 5.006v3.713c-6.525-0.387-12.063-4.406-14.563-10.106-0.344-0.781-1.45-0.825-1.813-0.056-1.038 2.194-1.625 4.644-1.625 7.231 0 4.425 2.131 8.556 5.319 11.619 0.825 0.794 1.631 1.45 2.431 2.050l-8.994 2.25c-0.669 0.169-0.969 0.944-0.594 1.525 1.087 1.681 3.775 4.531 9.575 4.769 0.5 0.019 1-0.163 1.381-0.494l4.075-3.506h4.806c5.525 0 10-4.469 10-9.994v-10.006l2-4h-7zM25 10.006c-0.55 0-1-0.45-1-1s0.45-1 1-1 1 0.45 1 1-0.45 1-1 1z"></path>
</symbol>
<symbol id="icon-facebook" viewBox="0 0 20 32">
<path d="M17.446 18l0.889-5.791h-5.557v-3.758c0-1.584 0.776-3.129 3.265-3.129h2.526v-4.931s-2.293-0.391-4.484-0.391c-4.576 0-7.567 2.774-7.567 7.795v4.414h-5.087v5.791h5.087v14h6.261v-14z"></path>
</symbol>
<symbol id="icon-branding" viewBox="0 0 36 32">
<path d="M32 20s-4 5.791-4 8c0 2.209 1.791 4 4 4s4-1.791 4-4-4-8-4-8zM32 30c-1.102 0-2-0.898-2-1.997 0.016-0.611 0.848-2.354 2.001-4.296 1.152 1.94 1.983 3.682 1.999 4.293 0 1.102-0.898 2-2 2zM31.414 13.566l-12.981-12.981c-0.391-0.391-0.902-0.586-1.414-0.586s-1.024 0.195-1.414 0.586l-5.803 5.803-6.242-6.242c-0.195-0.195-0.512-0.195-0.707 0l-0.708 0.707c-0.195 0.195-0.195 0.512 0 0.707l6.242 6.242-6.631 6.631c-2.343 2.343-2.343 6.141 0 8.484l7.324 7.324c1.172 1.171 2.707 1.758 4.242 1.758s3.071-0.586 4.242-1.758l13.848-13.848c0.781-0.781 0.781-2.047 0.001-2.829zM16.152 28.829c-0.756 0.755-1.76 1.171-2.828 1.171s-2.072-0.416-2.828-1.171l-7.325-7.325c-0.43-0.43-0.736-0.946-0.932-1.504h22.741l-8.828 8.829zM26.98 18h-24.914c0.138-0.81 0.513-1.559 1.106-2.152l6.631-6.632 5.491 5.491c0.391 0.391 1.024 0.391 1.414 0s0.391-1.024 0-1.414l-5.491-5.491 5.803-5.803 12.981 12.98-3.020 3.020z"></path>
</symbol>
<symbol id="icon-github" viewBox="0 0 30 32">
<path d="M11.631 20.544c0 1.306-0.681 3.444-2.294 3.444s-2.294-2.137-2.294-3.444 0.681-3.444 2.294-3.444 2.294 2.137 2.294 3.444zM30 17.387c0 1.994-0.2 4.106-1.094 5.938-2.369 4.787-8.881 4.675-13.544 4.675-4.738 0-11.637 0.169-14.1-4.675-0.912-1.813-1.262-3.944-1.262-5.938 0-2.619 0.869-5.094 2.594-7.1-0.325-0.988-0.481-2.025-0.481-3.050 0-1.344 0.306-2.019 0.913-3.237 2.831 0 4.644 0.563 6.8 2.25 1.813-0.431 3.675-0.625 5.544-0.625 1.688 0 3.387 0.181 5.025 0.575 2.125-1.669 3.938-2.2 6.738-2.2 0.613 1.219 0.913 1.894 0.913 3.237 0 1.025-0.163 2.044-0.481 3.013 1.719 2.025 2.438 4.519 2.438 7.137zM25.981 20.544c0-2.744-1.669-5.162-4.594-5.162-1.181 0-2.313 0.213-3.5 0.375-0.931 0.144-1.863 0.2-2.819 0.2-0.95 0-1.881-0.056-2.819-0.2-1.169-0.162-2.313-0.375-3.5-0.375-2.925 0-4.594 2.419-4.594 5.162 0 5.488 5.025 6.331 9.4 6.331h3.013c4.394 0 9.413-0.837 9.413-6.331zM20.819 17.1c-1.613 0-2.294 2.137-2.294 3.444s0.681 3.444 2.294 3.444 2.294-2.137 2.294-3.444-0.681-3.444-2.294-3.444z"></path>
</symbol>
<symbol id="icon-google" viewBox="0 0 31 32">
<path d="M30.5 16.363c0 8.844-6.056 15.137-15 15.137-8.575 0-15.5-6.925-15.5-15.5s6.925-15.5 15.5-15.5c4.175 0 7.688 1.531 10.394 4.056l-4.219 4.056c-5.519-5.325-15.781-1.325-15.781 7.387 0 5.406 4.319 9.788 9.606 9.788 6.137 0 8.438-4.4 8.8-6.681h-8.8v-5.331h14.756c0.144 0.794 0.244 1.556 0.244 2.587z"></path>
</symbol>
<symbol id="icon-linkedin" viewBox="0 0 28 32">
<path d="M6.268 28h-5.805v-18.694h5.805zM3.362 6.756c-1.856 0-3.362-1.537-3.362-3.394s1.505-3.362 3.362-3.362 3.362 1.505 3.362 3.362v0c0 1.856-1.506 3.394-3.362 3.394zM27.994 28h-5.793v-9.1c0-2.169-0.044-4.95-3.018-4.95-3.018 0-3.481 2.356-3.481 4.794v9.256h-5.799v-18.694h5.568v2.55h0.081c0.775-1.469 2.668-3.019 5.492-3.019 5.875 0 6.955 3.869 6.955 8.894v10.269z"></path>
</symbol>
<symbol id="icon-military" viewBox="0 0 32 32">
<path d="M13.984 8.172l-4.321-7.201c-0.356-0.586-0.99-0.971-1.715-0.971h-6.947c-0.809 0-1.283 0.911-0.819 1.574l6.954 9.935c1.857-1.736 4.22-2.927 6.848-3.337zM30.998 0h-6.947c-0.703 0-1.354 0.369-1.715 0.971l-4.321 7.201c2.628 0.41 4.99 1.601 6.848 3.336l6.954-9.934c0.464-0.663-0.010-1.574-0.819-1.574zM16 10c-6.075 0-11 4.925-11 11s4.925 11 11 11 11-4.925 11-11-4.925-11-11-11zM21.782 19.829l-2.371 2.31 0.561 3.264c0.1 0.585-0.516 1.032-1.041 0.756l-2.932-1.541-2.931 1.541c-0.525 0.278-1.141-0.171-1.041-0.756l0.561-3.264-2.371-2.31c-0.426-0.415-0.191-1.139 0.397-1.224l3.277-0.477 1.464-2.97c0.132-0.268 0.387-0.399 0.643-0.399 0.257 0 0.514 0.134 0.646 0.399l1.464 2.97 3.277 0.477c0.587 0.085 0.823 0.809 0.397 1.224z"></path>
</symbol>
<symbol id="icon-php" viewBox="0 0 40 32">
<path d="M20 6.531c10.712 0 18.95 4.512 18.95 9.469s-8.244 9.469-18.95 9.469c-10.713 0-18.95-4.512-18.95-9.469s8.244-9.469 18.95-9.469zM20 5.481c-11.044 0-20 4.706-20 10.519s8.956 10.519 20 10.519 20-4.706 20-10.519-8.956-10.519-20-10.519zM13.637 15.156c-0.494 2.531-2.238 2.269-4.381 2.269l0.856-4.412c2.375 0 3.987-0.256 3.525 2.144zM6.088 21.894h2.294l0.544-2.8c2.569 0 4.162 0.188 5.637-1.194 1.631-1.5 2.056-4.169 0.894-5.506-0.606-0.7-1.581-1.044-2.906-1.044h-4.419l-2.044 10.544zM17.694 8.544h2.281l-0.544 2.8c1.969 0 3.794-0.144 4.675 0.669 0.925 0.85 0.481 1.938-0.519 7.069h-2.313c0.962-4.963 1.144-5.375 0.794-5.75-0.337-0.363-1.106-0.287-2.962-0.287l-1.175 6.037h-2.281l2.044-10.537zM31.563 15.156c-0.5 2.569-2.294 2.269-4.381 2.269l0.856-4.412c2.387 0 3.988-0.256 3.525 2.144zM24.012 21.894h2.3l0.544-2.8c2.7 0 4.194 0.156 5.637-1.194 1.631-1.5 2.056-4.169 0.894-5.506-0.606-0.7-1.581-1.044-2.906-1.044h-4.419l-2.050 10.544z"></path>
</symbol>
<symbol id="icon-pinterest" viewBox="0 0 31 32">
<path d="M31 16c0 8.563-6.938 15.5-15.5 15.5-1.6 0-3.137-0.244-4.588-0.694 0.631-1.031 1.575-2.719 1.925-4.063 0.188-0.725 0.963-3.688 0.963-3.688 0.506 0.962 1.981 1.781 3.55 1.781 4.675 0 8.044-4.3 8.044-9.644 0-5.119-4.181-8.95-9.556-8.95-6.688 0-10.244 4.488-10.244 9.381 0 2.275 1.213 5.106 3.144 6.006 0.294 0.137 0.45 0.075 0.519-0.206 0.050-0.212 0.313-1.269 0.431-1.756 0.037-0.156 0.019-0.294-0.106-0.444-0.631-0.781-1.144-2.206-1.144-3.537 0-3.419 2.588-6.725 7-6.725 3.806 0 6.475 2.594 6.475 6.306 0 4.194-2.119 7.1-4.875 7.1-1.519 0-2.662-1.256-2.294-2.8 0.438-1.844 1.281-3.831 1.281-5.162 0-1.188-0.637-2.181-1.963-2.181-1.556 0-2.806 1.606-2.806 3.762 0 1.375 0.463 2.3 0.463 2.3s-1.531 6.488-1.813 7.7c-0.313 1.337-0.188 3.225-0.056 4.45-5.763-2.256-9.85-7.869-9.85-14.438 0-8.563 6.938-15.5 15.5-15.5s15.5 6.938 15.5 15.5z"></path>
</symbol>
<symbol id="icon-rankings" viewBox="0 0 32 32">
<path d="M14.693 12.464l-2.813-0.844c-0.322-0.097-0.548-0.424-0.548-0.796 0-0.454 0.331-0.824 0.738-0.824h1.757c0.285 0 0.56 0.081 0.801 0.232 0.203 0.127 0.46 0.119 0.633-0.046l0.734-0.701c0.221-0.211 0.208-0.576-0.036-0.759-0.569-0.427-1.255-0.673-1.961-0.709v-1.018c0-0.276-0.224-0.5-0.5-0.5h-1c-0.276 0-0.5 0.224-0.5 0.5v1.008c-1.476 0.039-2.667 1.284-2.667 2.817 0 1.248 0.811 2.363 1.974 2.712l2.813 0.844c0.322 0.097 0.548 0.424 0.548 0.796 0 0.454-0.331 0.824-0.738 0.824h-1.757c-0.285 0-0.56-0.081-0.801-0.232-0.203-0.127-0.46-0.119-0.633 0.046l-0.734 0.701c-0.221 0.211-0.208 0.576 0.036 0.759 0.569 0.427 1.255 0.673 1.961 0.709v1.018c0 0.276 0.224 0.5 0.5 0.5h1c0.276 0 0.5-0.224 0.5-0.5v-1.008c1.476-0.039 2.667-1.284 2.667-2.817 0-1.248-0.811-2.363-1.974-2.712zM31.779 30.099l-8.062-8.063c-0.144-0.144-0.331-0.219-0.531-0.219h-0.644c2.144-2.319 3.456-5.412 3.456-8.818 0-7.181-5.819-12.999-12.999-12.999s-12.999 5.819-12.999 12.999c0 7.181 5.819 12.999 12.999 12.999 3.406 0 6.499-1.313 8.818-3.45v0.637c0 0.2 0.081 0.387 0.219 0.531l8.062 8.062c0.294 0.294 0.769 0.294 1.063 0l0.619-0.619c0.294-0.293 0.294-0.768 0-1.062zM12.999 23.999c-6.081 0-10.999-4.918-10.999-10.999s4.919-10.999 10.999-10.999 10.999 4.919 10.999 10.999c0 6.081-4.918 10.999-10.999 10.999z"></path>
</symbol>
<symbol id="icon-share" viewBox="0 0 32 32">
<path d="M31.481 11.865l-11-9.499c-0.963-0.832-2.48-0.156-2.48 1.135v5.003c-10.039 0.115-18 2.127-18 11.641 0 3.84 2.474 7.644 5.208 9.633 0.853 0.621 2.069-0.158 1.755-1.164-2.834-9.063 1.344-11.469 11.037-11.609v5.495c0 1.294 1.519 1.966 2.48 1.135l11-9.5c0.692-0.598 0.693-1.672 0-2.271z"></path>
</symbol>
<symbol id="icon-stars" viewBox="0 0 32 32">
<path d="M21 10l1.669-3.331 3.331-1.669-3.331-1.669-1.669-3.331-1.669 3.331-3.331 1.669 3.331 1.669 1.669 3.331zM30 12l-1-2-1 2-2 1 2 1 1 2 1-2 2-1-2-1zM22.769 16.706l-6.55-0.956-2.931-5.95c-0.525-1.063-2.044-1.075-2.575 0l-2.931 5.95-6.55 0.956c-1.175 0.169-1.65 1.619-0.794 2.45l4.744 4.625-1.125 6.538c-0.2 1.181 1.044 2.069 2.081 1.512l5.862-3.087 5.862 3.087c1.044 0.55 2.281-0.331 2.081-1.512l-1.119-6.538 4.744-4.625c0.85-0.831 0.375-2.281-0.8-2.45z"></path>
</symbol>
<symbol id="icon-twitter" viewBox="0 0 32 32">
<path d="M28.711 9.482c0.020 0.284 0.020 0.569 0.020 0.853 0 8.67-6.599 18.66-18.66 18.66-3.716 0-7.168-1.076-10.071-2.944 0.528 0.061 1.036 0.081 1.584 0.081 3.066 0 5.888-1.035 8.142-2.802-2.883-0.061-5.3-1.949-6.132-4.548 0.406 0.061 0.812 0.102 1.239 0.102 0.589 0 1.178-0.081 1.726-0.223-3.005-0.609-5.259-3.249-5.259-6.437v-0.081c0.873 0.487 1.888 0.792 2.964 0.832-1.766-1.178-2.924-3.188-2.924-5.462 0-1.218 0.325-2.335 0.893-3.31 3.228 3.98 8.081 6.579 13.523 6.863-0.101-0.487-0.162-0.995-0.162-1.502 0-3.614 2.924-6.558 6.558-6.558 1.888 0 3.594 0.792 4.792 2.071 1.482-0.284 2.904-0.832 4.162-1.584-0.487 1.523-1.523 2.802-2.883 3.614 1.32-0.142 2.599-0.508 3.777-1.015-0.893 1.299-2.010 2.457-3.289 3.391z"></path>
</symbol>
<symbol id="icon-results" viewBox="0 0 40 32">
<path d="M13 22h-0.238c-0.871 0.302-1.79 0.5-2.762 0.5s-1.891-0.198-2.762-0.5h-0.238c-3.866 0-7 3.134-7 7 0 1.657 1.343 3 3 3h14c1.657 0 3-1.343 3-3 0-3.866-3.134-7-7-7zM37 0h-24c-1.654 0-3 1.391-3 3.099v2.901c1.464 0 2.819 0.424 4 1.112v-3.112h22v18h-16.765c1.194 1.043 2.070 2.421 2.481 4h15.284c1.654 0 3-1.391 3-3.099v-19.801c0-1.709-1.346-3.099-3-3.099zM10 20c3.314 0 6-2.686 6-6s-2.686-6-6-6-6 2.686-6 6 2.686 6 6 6zM20.561 10.439c-0.586-0.586-1.536-0.586-2.121 0l-0.922 0.922c0.293 0.831 0.483 1.709 0.483 2.638 0 0.427-0.061 0.838-0.126 1.247l1.626-1.625 3.439 3.439c0.586 0.586 1.536 0.586 2.121 0l4.5-4.5 1.519 1.519c0.709 0.709 1.921 0.207 1.921-0.796v-5.534c0-0.414-0.336-0.75-0.75-0.75h-5.534c-1.003 0-1.504 1.212-0.796 1.921l1.519 1.519-3.439 3.439-3.439-3.439z"></path>
</symbol>
<symbol id="icon-education" viewBox="0 0 28 32">
<path d="M19.962 20.038l-5.963 5.962-5.963-5.962c-4.469 0.194-8.037 3.85-8.037 8.363v0.6c0 1.656 1.344 3 3 3h22c1.656 0 3-1.344 3-3v-0.6c0-4.512-3.569-8.169-8.038-8.363zM0.85 4.987l0.4 0.094v3.65c-0.438 0.262-0.75 0.719-0.75 1.269 0 0.525 0.287 0.963 0.694 1.231l-0.975 3.894c-0.106 0.431 0.131 0.875 0.475 0.875h2.612c0.344 0 0.581-0.444 0.475-0.875l-0.975-3.894c0.406-0.269 0.694-0.706 0.694-1.231 0-0.55-0.313-1.006-0.75-1.269v-3.287l4.125 0.994c-0.537 1.075-0.875 2.275-0.875 3.563 0 4.419 3.581 8 8 8s8-3.581 8-8c0-1.287-0.331-2.487-0.875-3.563l6.019-1.45c1.137-0.275 1.137-1.694 0-1.969l-11.9-2.875c-0.813-0.194-1.669-0.194-2.481 0l-11.912 2.869c-1.131 0.275-1.131 1.7 0 1.975z"></path>
</symbol>
</defs>
</svg>
